<?xml version="1.0" encoding="utf-8"?>
<!-- Generator: Adobe Illustrator 27.1.1, SVG Export Plug-In . SVG Version: 6.00 Build 0)  -->
<svg version="1.1" id="Layer_1" xmlns="http://www.w3.org/2000/svg" xmlns:xlink="http://www.w3.org/1999/xlink" x="0px" y="0px"
	 viewBox="0 0 512 512" style="enable-background:new 0 0 512 512;" xml:space="preserve">
<style type="text/css">
	.st0{fill:#0F88EB;}
</style>
<g>
	<path class="st0" d="M136.43,343.74l18.74,0.01l6.17,21.1l33.61-21.1h39.62V169.7h-98.14V343.74z M156.37,188.6h58.26v136.25
		h-22.35l-22.32,14.01l-4.06-13.98l-9.52-0.03L156.37,188.6L156.37,188.6z M119.86,249.34H78c1.4-21.68,1.76-41.27,1.76-58.77h40.93
		c0,0,1.57-18.05-6.86-17.84h-70.8c2.79-10.5,6.3-21.33,10.5-32.53c0,0-19.26,0-25.82,17.26c-2.71,7.12-10.57,34.51-24.56,62.49
		c4.71-0.51,20.29-0.95,29.47-17.77c1.69-4.71,2.01-5.32,4.11-11.62h23.09c0,8.4-0.96,53.51-1.35,58.75H16.67
		c-9.4,0-12.45,18.89-12.45,18.89h52.46C53.16,308.09,34.27,341.7,0,368.28c16.39,4.68,32.73-0.74,40.8-7.92
		c0,0,18.39-16.72,28.47-55.4l43.17,51.96c0,0,6.33-21.51-0.99-31.99c-6.07-7.14-22.45-26.45-29.43-33.45l-11.7,9.29
		c3.49-11.18,5.59-22.04,6.3-32.54h49.32c0,0-0.07-18.89-6.07-18.89V249.34z M449.48,248.05c16.67-20.51,35.98-46.86,35.98-46.86
		s-14.92-11.84-21.9-3.25c-4.8,6.52-29.47,38.56-29.47,38.56L449.48,248.05L449.48,248.05z M329.4,200.79
		c-7.2-6.6-20.73,1.71-20.73,1.71s31.62,44.03,32.9,45.96l15.57-10.98c0,0-20.53-30.09-27.73-36.69H329.4z M512,257.88
		c-15.82,0-104.73,0.75-104.85,0.75v-80.8c3.85,0,9.94-0.32,18.28-0.96c32.7-1.93,56.1-3.2,70.22-3.85c0,0,9.77-21.75-0.47-26.75
		c-2.46-0.95-18.54,3.66-18.54,3.66s-132.18,13.19-185.89,14.44c1.28,7.06,6.09,13.66,12.62,15.64c10.65,2.78,18.15,1.36,39.32,0.71
		c19.87-1.28,34.95-1.95,45.21-1.95v79.85H281.12c0,0,2.25,17.84,20.4,18.28h86.35v56.73c0,11.17-8.96,17.59-19.58,16.9
		c-11.26,0.09-20.87-0.92-33.35-1.45c1.6,3.17,5.06,11.51,15.45,17.47c7.9,3.85,12.94,5.26,20.81,5.26
		c23.65,0,36.53-13.82,35.91-36.25V276.9h97.89c7.75,0,6.96-19.03,6.96-19.03L512,257.88z"/>
</g>
</svg>
